<svg xmlns="http://www.w3.org/2000/svg" aria-hidden="true" style="position:absolute;width:0;height:0;overflow:hidden">
  <defs>
    <symbol id="icon-spoon" viewBox="0 0 32 32">
      <path fill="#fd9222" d="M15.452 14.107a5.127 5.127 0 0 1-1.176-3.278v-.004c0-4.324 5.181-8.643 10.363-8.643a5.183 5.183 0 0 1 5.181 5.182c0 5.182-4.317 10.365-8.647 10.365h-.003a5.136 5.136 0 0 1-3.287-1.184l.009.007L5.133 29.314a1.73 1.73 0 0 1-2.445-2.447l-.001.001 12.765-12.762z" style="fill:var(--color1, #fd9222)"/>
    </symbol>
    <symbol id="icon-coin" viewBox="0 0 32 32">
      <path fill="#fd9222" d="M16.005.763C7.622.763.762 7.622.762 16.006s6.859 15.243 15.243 15.243 15.243-6.859 15.243-15.243S24.389.763 16.005.763zm0 27.437C9.298 28.2 3.81 22.713 3.81 16.005S9.297 3.81 16.005 3.81 28.2 9.297 28.2 16.005 22.713 28.2 16.005 28.2z" style="fill:var(--color1, #fd9222)"/>
      <path fill="#fd9222" d="M17.986 14.481h-3.962c-.763 0-1.372-.61-1.372-1.372 0-.763.609-1.372 1.372-1.372h5.64c.915 0 1.524-.61 1.524-1.525s-.609-1.524-1.524-1.524H17.53V7.316c0-.915-.609-1.524-1.524-1.524s-1.524.609-1.524 1.524v1.372h-.457a4.424 4.424 0 0 0-4.421 4.421 4.425 4.425 0 0 0 4.421 4.42h3.811c.763 0 1.372.61 1.372 1.372 0 .763-.609 1.372-1.372 1.372h-5.639c-.915 0-1.525.61-1.525 1.525s.61 1.524 1.525 1.524h2.286v1.372c0 .915.609 1.524 1.524 1.524s1.524-.609 1.524-1.524v-1.372h.457a4.424 4.424 0 0 0 4.421-4.421 4.425 4.425 0 0 0-4.421-4.42z" style="fill:var(--color1, #fd9222)"/>
    </symbol>
    <symbol id="icon-chocolate-bar" viewBox="0 0 32 32">
      <path fill="#111" d="m13.823 2.413 7.529 7.538.08-.08a.854.854 0 0 1 1.185-.012l.873.873c.305.304.316.77.084 1.093l-.005.008-.143.192 6.16 6.16c.55.55.55 1.43 0 1.98l-9.431 9.431c-.55.55-1.43.55-1.98 0l-4.447-4.448a.841.841 0 0 1-1.255.072l-2.6-2.6a.854.854 0 0 1-.012-1.185l.006-.008.077-.076-7.528-7.528c-.55-.55-.55-1.43 0-1.98l9.431-9.431c.55-.55 1.43-.55 1.98 0v.002zm6.582 8.481-1.756-1.755a.59.59 0 0 0-.85 0l-3.58 3.58a.607.607 0 0 0 0 .86l1.75 1.75.61-.61-1.566-1.566 3.21-3.22 1.57 1.575.612-.614zm-5.075 5.072-1.755-1.754a.59.59 0 0 0-.85 0l-3.59 3.591c-.24.23-.24.61 0 .85l1.752 1.752.617-.616-1.57-1.564 3.22-3.21 1.563 1.563.613-.612zm-6.507-7.77 3.58 3.58c.24.24.62.24.85-.01l3.58-3.58a.579.579 0 0 0 .18-.42h.01c0-.15-.06-.31-.18-.43l-3.58-3.58a.603.603 0 0 0-.86 0l-3.58 3.59c-.24.23-.24.61 0 .85zm-5.071 5.07 3.58 3.58c.24.24.62.24.85 0l3.58-3.58a.579.579 0 0 0 .18-.42v-.01.001h.01c0-.16-.06-.31-.18-.43l-3.58-3.58a.59.59 0 0 0-.85 0l-3.59 3.59c-.24.23-.24.61 0 .85zm6.934 8.754 2.362 2.364 9.637-13.041-.654-.655L10.686 22.02z" style="fill:var(--color2, #111)"/>
      <path fill="#fd9222" d="m13.823 2.413 7.529 7.538.08-.08a.854.854 0 0 1 1.185-.012l.873.873c.305.304.316.77.084 1.093l-.005.008-.143.192 6.16 6.16c.55.55.55 1.43 0 1.98l-9.431 9.431c-.55.55-1.43.55-1.98 0l-4.447-4.448a.841.841 0 0 1-1.255.072l-2.6-2.6a.854.854 0 0 1-.012-1.185l.006-.008.077-.076-7.528-7.528c-.55-.55-.55-1.43 0-1.98l9.431-9.431c.55-.55 1.43-.55 1.98 0v.002zm6.582 8.481-1.756-1.755a.59.59 0 0 0-.85 0l-3.58 3.58a.607.607 0 0 0 0 .86l1.75 1.75.61-.61-1.566-1.566 3.21-3.22 1.57 1.575.612-.614zm-5.075 5.072-1.755-1.754a.59.59 0 0 0-.85 0l-3.59 3.591c-.24.23-.24.61 0 .85l1.752 1.752.617-.616-1.57-1.564 3.22-3.21 1.563 1.563.613-.612zm-6.507-7.77 3.58 3.58c.24.24.62.24.85-.01l3.58-3.58a.579.579 0 0 0 .18-.42h.01c0-.15-.06-.31-.18-.43l-3.58-3.58a.603.603 0 0 0-.86 0l-3.58 3.59c-.24.23-.24.61 0 .85zm-5.071 5.07 3.58 3.58c.24.24.62.24.85 0l3.58-3.58a.579.579 0 0 0 .18-.42v-.01.001h.01c0-.16-.06-.31-.18-.43l-3.58-3.58a.59.59 0 0 0-.85 0l-3.59 3.59c-.24.23-.24.61 0 .85zm6.934 8.754 2.362 2.364 9.637-13.041-.654-.655L10.686 22.02z" style="fill:var(--color1, #fd9222)"/>
    </symbol>
    <symbol id="icon-twitter" viewBox="0 0 32 32">
      <path d="M29.339 7.9a11.11 11.11 0 0 1-3.095.857l-.057.006a5.467 5.467 0 0 0 2.395-2.983l.011-.038a10.715 10.715 0 0 1-3.397 1.312l-.07.012a5.466 5.466 0 0 0-9.459 3.733v.006c0 .432.037.85.128 1.246-4.546-.221-8.568-2.4-11.27-5.718a5.451 5.451 0 0 0-.751 2.763v.001c0 1.894.976 3.573 2.428 4.543a5.382 5.382 0 0 1-2.496-.687l.027.014v.061a5.495 5.495 0 0 0 4.345 5.365l.036.006c-.417.114-.896.18-1.39.18h-.045.002c-.351 0-.703-.02-1.035-.093.708 2.166 2.718 3.758 5.109 3.81a10.915 10.915 0 0 1-6.766 2.331h-.014.001-.072c-.436 0-.865-.027-1.286-.08l.05.005a15.245 15.245 0 0 0 8.338 2.454h.053-.003c10.062 0 15.563-8.335 15.563-15.56 0-.24-.008-.475-.02-.707a11.011 11.011 0 0 0 2.716-2.797l.025-.039z"/>
    </symbol>
    <symbol id="icon-instagram" viewBox="0 0 32 32">
      <path d="M28.723 10.758a9.235 9.235 0 0 0-.618-3.209l.021.063a6.588 6.588 0 0 0-3.699-3.723l-.044-.015a9.216 9.216 0 0 0-3.097-.596h-.01c-1.368-.06-1.802-.077-5.274-.077s-3.917 0-5.276.077a9.384 9.384 0 0 0-3.172.618l.064-.022A6.583 6.583 0 0 0 3.89 7.568l-.015.044a9.115 9.115 0 0 0-.595 3.093v.009c-.061 1.367-.08 1.8-.08 5.266 0 3.467 0 3.909.08 5.266a9.341 9.341 0 0 0 .616 3.169l-.022-.064a6.585 6.585 0 0 0 3.702 3.72l.044.015c.917.37 1.98.602 3.091.64h.016c1.368.06 1.802.079 5.274.079s3.917 0 5.276-.08a9.383 9.383 0 0 0 3.172-.616l-.064.022a6.596 6.596 0 0 0 3.729-3.692l.016-.044c.356-.92.573-1.984.595-3.095v-.009c.061-1.366.08-1.799.08-5.268-.003-3.466-.003-3.905-.083-5.264zM15.992 22.535h-.005a6.567 6.567 0 0 1-6.567-6.561 6.567 6.567 0 0 1 6.567-6.563H16a6.568 6.568 0 0 1 6.568 6.561A6.568 6.568 0 0 1 16 22.535h-.007zm6.836-11.837a1.53 1.53 0 1 1 0-3.06 1.53 1.53 0 1 1 0 3.06z"/>
      <path d="M15.995 19.98a4.005 4.005 0 1 0 0-8.01 4.005 4.005 0 1 0 0 8.01z"/>
    </symbol>
    <symbol id="icon-facebook" viewBox="0 0 32 32">
      <path d="M19.524 4.641h.96v3.601h-1.2c-.48 0-.96 0-1.2.24s-.24.48-.24 1.04v1.28h2.64v3.041h-2.64v13.202h-4.081V13.763h-2.16v-3.041h2.16v-1.04c0-1.76.24-3.041.72-3.601.72-1.04 2.16-1.52 4.321-1.52.24.08.48.08.72.08z"/>
    </symbol>
  </defs>
</svg>
